<?xml version="1.0" encoding="UTF-8"?> <svg xmlns="http://www.w3.org/2000/svg" width="186" height="86" viewBox="0 0 186 86" fill="none"><path d="M0 8.44214C0 3.96214 3.63 0.332153 8.11 0.332153H177.5C181.98 0.332153 185.61 3.96214 185.61 8.44214V77.5322C185.61 82.0122 181.98 85.6422 177.5 85.6422H8.11C3.63 85.6422 0 82.0122 0 77.5322V8.44214Z" fill="white"></path><path d="M29.9889 47.642L24.9389 47.542C24.4789 47.542 24.1589 47.082 24.3089 46.642L33.7489 19.322L47.5689 12.952C49.9689 11.852 52.3689 14.482 51.0489 16.762L34.7889 44.922C33.7989 46.632 31.9689 47.672 29.9889 47.632V47.642Z" fill="url(#paint0_linear_26_330)"></path><path d="M48.7396 53.1021L51.1796 57.532C51.3996 57.932 51.1696 58.432 50.7196 58.522L22.3396 64.002L9.91962 55.222C7.75962 53.702 8.83962 50.3021 11.4796 50.3021H43.9996C45.9696 50.3021 47.7896 51.3721 48.7396 53.1021Z" fill="url(#paint1_linear_26_330)"></path><path d="M46.7698 29.882L44.1598 34.202C43.1398 35.892 43.1198 38.002 44.1098 39.712L60.3698 67.8721C61.6898 70.1621 65.1698 69.392 65.4098 66.762L66.8098 51.612L47.8698 29.782C47.5698 29.432 47.0198 29.4821 46.7798 29.8721L46.7698 29.882Z" fill="url(#paint2_linear_26_330)"></path><path fill-rule="evenodd" clip-rule="evenodd" d="M164.02 43.252H84.1602V42.202H164.02V43.252Z" fill="black"></path><path d="M92.9194 16.6621C93.1694 16.7121 93.2994 16.8321 93.2994 17.1121V18.6821C93.2994 18.9321 93.1794 19.0621 92.8994 19.0621H91.2494C90.0294 19.0621 89.4794 19.1621 89.4794 20.2321V21.8821H92.5994C92.8794 21.8821 92.9794 22.0021 92.9294 22.2821L92.6294 23.9021C92.5794 24.1521 92.4494 24.2521 92.2094 24.2521H89.4894V35.3021C89.4894 35.5521 89.3694 35.6821 89.1094 35.6821H86.8394C86.5894 35.6821 86.4594 35.5621 86.4594 35.3021V24.2521H84.7594C84.4794 24.2521 84.3594 24.1321 84.3594 23.8721V22.2521C84.3594 22.0021 84.4794 21.8721 84.7594 21.8721H86.4594V19.6221C86.4594 16.6521 88.6594 16.4221 90.4794 16.4221C91.2294 16.4221 92.1794 16.5221 92.9294 16.6421L92.9194 16.6621Z" fill="black"></path><path d="M106.599 21.8621C106.849 21.8621 106.979 21.9821 106.979 22.2421V34.9921C106.979 35.3221 106.859 35.3421 106.599 35.3921C104.749 35.7721 102.529 35.8121 101.029 35.8121C96.4094 35.8121 95.1094 35.0921 95.1094 29.8621V22.2421C95.1094 21.9921 95.2794 21.8621 95.5294 21.8621H97.7794C98.0294 21.8621 98.1294 21.9821 98.1294 22.2421V29.3121C98.1294 33.0121 98.6994 33.1821 101.049 33.1821H103.929V22.2321C103.929 21.9821 104.049 21.8521 104.299 21.8521H106.599V21.8621Z" fill="black"></path><path d="M113.199 16.5621C113.449 16.5621 113.579 16.6821 113.579 16.9421V35.3121C113.579 35.5621 113.459 35.6921 113.199 35.6921H110.929C110.679 35.6921 110.549 35.5721 110.549 35.3121V16.9421C110.549 16.6921 110.669 16.5621 110.929 16.5621H113.199Z" fill="black"></path><path d="M119.82 16.5621C120.07 16.5621 120.2 16.6821 120.2 16.9421V35.3121C120.2 35.5621 120.08 35.6921 119.82 35.6921H117.55C117.3 35.6921 117.17 35.5721 117.17 35.3121V16.9421C117.17 16.6921 117.29 16.5621 117.55 16.5621H119.82Z" fill="black"></path><path d="M139.12 22.0021C139.37 22.0521 139.5 22.1721 139.5 22.4521V23.9721C139.5 24.2221 139.38 24.3521 139.1 24.3521H135.18C132.51 24.3521 132.16 25.2321 132.16 28.7521C132.16 32.2721 132.51 33.1721 135.18 33.1721H139.1C139.38 33.1721 139.5 33.2921 139.5 33.5521V35.0721C139.5 35.3421 139.38 35.4721 139.12 35.5221C137.79 35.7521 136.17 35.8021 135.17 35.8021C130.1 35.8021 129.1 34.4021 129.1 28.7521C129.1 23.1021 130.1 21.7321 135.17 21.7321C136.17 21.7321 137.79 21.7821 139.12 22.0021Z" fill="black"></path><path d="M152.919 25.8321V34.5321C152.919 34.8521 152.869 35.1021 152.419 35.2521C151.119 35.6321 148.919 35.8021 146.799 35.8021C143.299 35.8021 141.529 35.2521 141.529 31.6321C141.529 28.4621 143.199 27.6621 146.279 27.6621H149.899V26.3621C149.899 24.9621 149.069 24.3621 147.079 24.3621H142.979C142.679 24.3621 142.599 24.2821 142.599 23.9821V22.4621C142.599 22.1621 142.699 22.1121 142.949 22.0621C144.449 21.7921 145.799 21.7421 147.069 21.7421C151.469 21.7421 152.919 23.1421 152.919 25.8421V25.8321ZM146.449 29.8321C145.119 29.8321 144.529 30.2521 144.529 31.5021C144.529 32.9221 145.199 33.2721 147.049 33.2721C147.669 33.2721 149.049 33.2221 149.899 32.9921V29.8221H146.449V29.8321Z" fill="black"></path><path d="M163.619 22.0021C163.869 22.0821 164.019 22.1721 164.019 22.4521V23.9721C164.019 24.2521 163.869 24.3721 163.599 24.3521H161.329C159.829 24.3521 159.379 24.6021 159.379 25.7021V35.3021C159.379 35.5521 159.259 35.6821 159.009 35.6821H156.739C156.489 35.6821 156.359 35.5621 156.359 35.3021V24.9321C156.359 21.9621 158.729 21.7321 160.579 21.7321C161.229 21.7321 162.949 21.8021 163.629 22.0021H163.619Z" fill="black"></path><path d="M93.7495 54.2021C93.9495 54.2321 94.0495 54.3521 94.0495 54.5321V55.3021C94.0495 55.5221 93.9495 55.6321 93.7295 55.6321H89.1795C88.0595 55.6321 87.0095 55.9821 87.0095 57.1321V57.5321C87.0095 58.3821 87.3395 59.0021 88.6795 59.5521L92.1995 60.9721C94.3695 61.8521 94.5695 63.0221 94.5695 64.3221V64.6221C94.5695 67.2721 93.1195 67.7921 89.6695 67.7921C87.8695 67.7921 85.7195 67.6421 85.3195 67.5921C85.0695 67.5721 85.0195 67.4421 85.0195 67.2921V66.5221C85.0195 66.2921 85.1195 66.1921 85.3195 66.1921H89.7195C92.0395 66.1921 92.7695 65.8921 92.7695 64.6221V64.2921C92.7695 63.4621 92.4695 62.9121 91.2695 62.4121L87.5195 60.9121C85.6195 60.1321 85.1895 58.8321 85.1895 57.4921V56.9421C85.1895 54.2421 87.6595 54.0221 89.8595 54.0221C90.8295 54.0221 92.4295 54.0421 93.7295 54.1921L93.7495 54.2021Z" fill="black"></path><path d="M107.889 60.4521V61.1821C107.889 61.6021 107.819 61.8021 107.119 61.8021H98.9491C99.0291 65.2721 99.6491 66.2021 102.569 66.2021H106.489C106.689 66.2021 106.819 66.3021 106.819 66.5321V67.3021C106.819 67.4721 106.719 67.6021 106.519 67.6321C105.349 67.7521 103.849 67.8021 102.569 67.8021C98.0491 67.8021 97.1191 66.4221 97.1191 60.9021C97.1191 55.3821 98.0391 54.0321 102.569 54.0321C106.839 54.0321 107.839 55.3021 107.889 60.4521ZM98.9491 60.1821H106.069C106.019 56.4821 105.449 55.6321 102.569 55.6321C99.5491 55.6321 98.9991 56.5321 98.9491 60.1821Z" fill="black"></path><path d="M117.099 54.2521C117.299 54.3321 117.399 54.4021 117.399 54.6021V55.3321C117.399 55.5521 117.279 55.6521 117.069 55.6321H114.899C113.429 55.6321 112.699 55.8521 112.699 57.0521V67.3521C112.699 67.5821 112.599 67.6821 112.369 67.6821H111.199C110.999 67.6821 110.879 67.5821 110.879 67.3521V56.6821C110.879 54.0621 113.399 54.0321 114.499 54.0321C115.099 54.0321 116.669 54.1121 117.099 54.2521Z" fill="black"></path><path d="M129.85 54.1521C130.1 54.1521 130.15 54.2321 130.13 54.5021L127.26 64.9221C126.59 67.4421 126.53 67.7921 124.34 67.7921C122.34 67.7921 122.27 67.4421 121.54 64.9221L118.59 54.5021C118.54 54.2321 118.59 54.1521 118.84 54.1521H120.16C120.33 54.1521 120.36 54.2321 120.46 54.5021L123.23 64.4721C123.63 65.9221 123.73 66.0921 124.33 66.0921C125.05 66.0921 125.18 65.9121 125.55 64.4721L128.25 54.5021C128.33 54.2321 128.37 54.1521 128.55 54.1521H129.85Z" fill="black"></path><path d="M134.899 50.3321C134.899 51.1021 134.499 51.5321 133.749 51.5321C132.999 51.5321 132.549 51.1121 132.549 50.3321C132.549 49.5521 132.969 49.1821 133.749 49.1821C134.529 49.1821 134.899 49.5821 134.899 50.3321ZM134.319 54.1521C134.519 54.1521 134.649 54.2721 134.649 54.4821V67.3521C134.649 67.5821 134.529 67.6821 134.319 67.6821H133.149C132.929 67.6821 132.829 67.5821 132.829 67.3521V54.4821C132.829 54.2821 132.929 54.1521 133.149 54.1521H134.319Z" fill="black"></path><path d="M147.189 54.2021C147.389 54.2321 147.489 54.3521 147.489 54.5321V55.3021C147.489 55.5221 147.369 55.6321 147.169 55.6321H143.499C140.249 55.6321 139.749 56.6821 139.749 60.9021C139.749 65.1221 140.249 66.2021 143.499 66.2021H147.169C147.369 66.2021 147.489 66.3021 147.489 66.5321V67.3021C147.489 67.4721 147.389 67.6021 147.189 67.6321C146.019 67.7521 144.439 67.8021 143.489 67.8021C138.889 67.8021 137.939 66.4221 137.939 60.9021C137.939 55.3821 138.889 54.0321 143.489 54.0321C144.439 54.0321 146.009 54.0521 147.189 54.2021Z" fill="black"></path><path d="M160.59 60.4521V61.1821C160.59 61.6021 160.51 61.8021 159.82 61.8021H151.65C151.73 65.2721 152.35 66.2021 155.27 66.2021H159.19C159.39 66.2021 159.52 66.3021 159.52 66.5321V67.3021C159.52 67.4721 159.42 67.6021 159.22 67.6321C158.05 67.7521 156.55 67.8021 155.27 67.8021C150.75 67.8021 149.82 66.4221 149.82 60.9021C149.82 55.3821 150.74 54.0321 155.27 54.0321C159.54 54.0321 160.54 55.3021 160.59 60.4521ZM151.65 60.1821H158.77C158.72 56.4821 158.15 55.6321 155.27 55.6321C152.25 55.6321 151.7 56.5321 151.65 60.1821Z" fill="black"></path><defs><linearGradient id="paint0_linear_26_330" x1="33.0589" y1="22.392" x2="59.5189" y2="69.322" gradientUnits="userSpaceOnUse"><stop stop-color="#FFCE23"></stop><stop offset="1" stop-color="#FF0000"></stop></linearGradient><linearGradient id="paint1_linear_26_330" x1="16.5196" y1="31.7121" x2="42.9795" y2="78.652" gradientUnits="userSpaceOnUse"><stop stop-color="#FFCE23"></stop><stop offset="1" stop-color="#FF0000"></stop></linearGradient><linearGradient id="paint2_linear_26_330" x1="40.0998" y1="18.432" x2="66.5498" y2="65.362" gradientUnits="userSpaceOnUse"><stop stop-color="#FFCE23"></stop><stop offset="1" stop-color="#FF0000"></stop></linearGradient></defs></svg> 